HIERARCHY
ROOT Hips
{
	OFFSET 0.000000 0.000000 0.000000
	CHANNELS 6 Xposition Yposition Zposition Zrotation Yrotation Xrotation 
	JOINT LowerBack
	{
		OFFSET 0.000000 0.000000 0.000000
		CHANNELS 3 Zrotation Yrotation Xrotation
		JOINT Spine
		{
			OFFSET 0.028270 2.035590 -0.193380
			CHANNELS 3 Zrotation Yrotation Xrotation
			JOINT Spine1
			{
				OFFSET 0.056720 2.048850 -0.042750
				CHANNELS 3 Zrotation Yrotation Xrotation
				JOINT Neck
				{
					OFFSET 0.000000 0.000000 0.000000
					CHANNELS 3 Zrotation Yrotation Xrotation
					JOINT Neck1
					{
						OFFSET -0.054170 1.746240 0.172020
						CHANNELS 3 Zrotation Yrotation Xrotation
						JOINT Head
						{
							OFFSET 0.104070 1.761360 -0.123970
							CHANNELS 3 Zrotation Yrotation Xrotation
							End Site
							{
								OFFSET 0.000000 0.000000 0.000000
							}
						}
					}
				}
				JOINT LeftShoulder
				{
					OFFSET 0.000000 0.000000 0.000000
					CHANNELS 3 Zrotation Yrotation Xrotation
					JOINT LeftArm
					{
						OFFSET 3.362410 1.200890 -0.311210
						CHANNELS 3 Zrotation Yrotation Xrotation
						JOINT LeftForeArm
						{
							OFFSET 4.983000 -0.000000 -0.000000
							CHANNELS 3 Zrotation Yrotation Xrotation
							JOINT LeftHand
							{
								OFFSET 3.483560 -0.000000 -0.000000
								CHANNELS 3 Zrotation Yrotation Xrotation
								JOINT LeftFingerBase
								{
									OFFSET 0.000000 0.000000 0.000000
									CHANNELS 3 Zrotation Yrotation Xrotation
									JOINT LeftHandIndex1
									{
										OFFSET 0.715260 -0.000000 -0.000000
										CHANNELS 3 Zrotation Yrotation Xrotation
										End Site
										{
											OFFSET 0.000000 0.000000 0.000000
										}
									}
								}
								JOINT LThumb
								{
									OFFSET 0.000000 0.000000 0.000000
									CHANNELS 3 Zrotation Yrotation Xrotation
									End Site
									{
										OFFSET 0.000000 0.000000 0.000000
									}
								}
							}
						}
					}
				}
				JOINT RightShoulder
				{
					OFFSET 0.000000 0.000000 0.000000
					CHANNELS 3 Zrotation Yrotation Xrotation
					JOINT RightArm
					{
						OFFSET -3.136600 1.374050 -0.404650
						CHANNELS 3 Zrotation Yrotation Xrotation
						JOINT RightForeArm
						{
							OFFSET -5.241900 -0.000000 -0.000000
							CHANNELS 3 Zrotation Yrotation Xrotation
							JOINT RightHand
							{
								OFFSET -3.444170 -0.000000 -0.000000
								CHANNELS 3 Zrotation Yrotation Xrotation
								JOINT RightFingerBase
								{
									OFFSET 0.000000 0.000000 0.000000
									CHANNELS 3 Zrotation Yrotation Xrotation
									JOINT RightHandIndex1
									{
										OFFSET -0.622530 -0.000000 -0.000000
										CHANNELS 3 Zrotation Yrotation Xrotation
										End Site
										{
											OFFSET 0.000000 0.000000 0.000000
										}
									}
								}
								JOINT RThumb
								{
									OFFSET 0.000000 0.000000 0.000000
									CHANNELS 3 Zrotation Yrotation Xrotation
									End Site
									{
										OFFSET 0.000000 0.000000 0.000000
									}
								}
							}
						}
					}
				}
			}
		}
	}
}
}
MOTION
Frames: 17
Frame Time: 0.008333
3.682614 16.687787 -2.533642 121.612724 -78.896549 -137.330723 -10.712212 0.213110 3.621719 -2.267798 0.910190 -1.660924 -3.354949 0.973421 1.640594 7.972688 -19.593675 -8.917964 -0.075473 0.025868 -0.410281 0.000000 0.000000 0.000000 3.426834 26.836640 0.435237 -76.482104 31.519027 -10.076226 -4.484008 -27.672387 -0.001615 -3.978110 -0.647823 0.020136 -0.143604 -0.056372 -0.000000 0.000000 0.000000 0.000000 0.000000 0.000000 0.000000 4.878438 -14.251974 -1.307680 63.448244 -7.239951 26.233748 1.509229 48.856805 0.006104 2.414356 4.636100 0.098685 0.025912 -0.077256 0.000000 0.000000 0.000000 0.000000 0.000000 0.000000 0.000000 
3.678446 16.672687 -2.532202 120.887927 -78.818542 -137.001273 -10.670118 0.085476 3.702927 -2.232415 0.788699 -1.630878 -3.277917 0.849732 1.654319 8.012353 -19.701932 -9.024577 -0.056198 0.029395 -0.440424 0.000000 0.000000 0.000000 3.332454 27.053831 0.510826 -77.062862 31.532126 -11.798544 -4.551491 -26.357096 -0.000596 -3.769414 -0.826274 0.024843 -0.148513 -0.052037 -0.000000 0.000000 0.000000 0.000000 0.000000 0.000000 0.000000 4.943261 -14.413450 -1.346828 63.241512 -7.195146 26.147476 1.483010 49.045472 0.006061 2.333541 4.799440 0.098780 0.024705 -0.079819 0.000000 0.000000 0.000000 0.000000 0.000000 0.000000 0.000000 
3.675996 16.656711 -2.533145 119.758752 -78.764927 -136.367088 -10.684338 -0.048265 3.905552 -2.210364 0.662943 -1.577295 -3.208845 0.725033 1.659084 8.055388 -19.835756 -9.119925 -0.039695 0.032626 -0.468603 0.000000 0.000000 0.000000 3.288964 27.167380 0.579897 -77.577469 31.469408 -13.385987 -4.612638 -25.009306 0.000439 -3.556293 -1.018225 0.029147 -0.153000 -0.047902 -0.000000 0.000000 0.000000 0.000000 0.000000 0.000000 0.000000 5.016453 -14.606414 -1.383813 63.121831 -7.162524 25.899950 1.460081 49.198236 0.006031 2.198062 4.972210 0.096379 0.024334 -0.082950 0.000000 0.000000 0.000000 0.000000 0.000000 0.000000 0.000000 
3.675065 16.641097 -2.535694 118.362290 -78.752982 -135.501958 -10.718371 -0.185488 4.172409 -2.195408 0.533487 -1.511723 -3.148971 0.598651 1.657961 8.095450 -19.988568 -9.199766 -0.027675 0.035282 -0.493078 0.000000 0.000000 0.000000 3.284653 27.184257 0.639937 -78.011481 31.326335 -14.823627 -4.667123 -23.641169 0.001459 -3.334727 -1.210373 0.032749 -0.157146 -0.043961 -0.000000 0.000000 0.000000 0.000000 0.000000 0.000000 0.000000 5.095291 -14.825234 -1.419646 63.086757 -7.158664 25.486505 1.442178 49.306677 0.006013 2.017427 5.142690 0.091382 0.024807 -0.086371 0.000000 0.000000 0.000000 0.000000 0.000000 0.000000 0.000000 
3.675474 16.626946 -2.539279 116.777122 -78.799508 -134.431483 -10.744962 -0.326305 4.456300 -2.182415 0.398745 -1.443830 -3.098959 0.467900 1.654304 8.130233 -20.160361 -9.262451 -0.020874 0.037219 -0.512881 0.000000 0.000000 0.000000 3.308187 27.116615 0.688651 -78.352159 31.103476 -16.096024 -4.713526 -22.283590 0.002416 -3.096971 -1.384229 0.034750 -0.161005 -0.040225 -0.000000 0.000000 0.000000 0.000000 0.000000 0.000000 0.000000 5.180460 -15.071776 -1.454561 63.127373 -7.183893 24.930118 1.429959 49.359988 0.005997 1.795664 5.305111 0.083790 0.026153 -0.089852 0.000000 0.000000 0.000000 0.000000 0.000000 0.000000 0.000000 
3.676066 16.615326 -2.541891 115.317752 -78.891068 -133.435510 -10.711330 -0.454984 4.709465 -2.160952 0.271805 -1.384424 -3.057011 0.344385 1.647815 8.143059 -20.325216 -9.302309 -0.019828 0.038218 -0.525847 0.000000 0.000000 0.000000 3.335560 26.989529 0.724391 -78.593912 30.814681 -17.197296 -4.751412 -20.956227 0.003321 -2.841129 -1.544216 0.035551 -0.164579 -0.036616 -0.000000 0.000000 0.000000 0.000000 0.000000 0.000000 0.000000 5.249821 -15.311474 -1.489483 63.229955 -7.279660 24.214538 1.424736 49.374836 0.005982 1.565499 5.440426 0.074699 0.027995 -0.093139 0.000000 0.000000 0.000000 0.000000 0.000000 0.000000 0.000000 
3.677230 16.606721 -2.544189 113.880504 -79.028133 -132.397444 -10.637297 -0.577904 4.922911 -2.134844 0.147494 -1.334684 -3.023969 0.222811 1.641339 8.145833 -20.496637 -9.323577 -0.023987 0.038401 -0.533072 0.000000 0.000000 0.000000 3.367738 26.815336 0.746389 -78.736658 30.471060 -18.116230 -4.778448 -19.726218 0.004087 -2.559911 -1.663175 0.034351 -0.167875 -0.033274 -0.000000 0.000000 0.000000 0.000000 0.000000 0.000000 0.000000 5.320312 -15.560263 -1.522835 63.380272 -7.413117 23.406214 1.425311 49.337796 0.005967 1.319034 5.551920 0.064012 0.030436 -0.096147 0.000000 0.000000 0.000000 0.000000 0.000000 0.000000 0.000000 
3.678322 16.601517 -2.545225 112.642891 -79.184231 -131.494827 -10.511185 -0.684721 5.083883 -2.101564 0.035732 -1.297519 -2.998075 0.112591 1.634173 8.133665 -20.660458 -9.325909 -0.032571 0.037804 -0.534308 0.000000 0.000000 0.000000 3.392937 26.616952 0.754893 -78.788432 30.094087 -18.849983 -4.794080 -18.639728 0.004700 -2.254891 -1.740135 0.031450 -0.170867 -0.030227 -0.000000 0.000000 0.000000 0.000000 0.000000 0.000000 0.000000 5.382090 -15.795938 -1.553936 63.561752 -7.595780 22.526134 1.431470 49.263466 0.005950 1.076882 5.630596 0.052626 0.033188 -0.098774 -0.000000 0.000000 0.000000 0.000000 0.000000 0.000000 0.000000 
3.679188 16.599771 -2.545507 111.591729 -79.336705 -130.720950 -10.358842 -0.775367 5.195512 -2.066050 -0.061990 -1.271903 -2.978736 0.015379 1.626632 8.115755 -20.824024 -9.313455 -0.044285 0.036622 -0.530771 0.000000 0.000000 0.000000 3.412913 26.403321 0.750420 -78.763742 29.710174 -19.409514 -4.798503 -17.759246 0.005117 -1.935039 -1.766075 0.027050 -0.173522 -0.027555 -0.000000 0.000000 0.000000 0.000000 0.000000 0.000000 0.000000 5.444418 -16.023607 -1.580586 63.757745 -7.804201 21.635746 1.441957 49.151737 0.005933 0.838917 5.679379 0.040940 0.036224 -0.100996 -0.000000 0.000000 0.000000 0.000000 0.000000 0.000000 0.000000 
3.679037 16.601196 -2.544092 110.938539 -79.455191 -130.304008 -10.172803 -0.838743 5.260854 -2.026351 -0.134815 -1.257564 -2.963445 -0.058095 1.616818 8.085430 -20.963356 -9.286613 -0.058047 0.034951 -0.522654 0.000000 0.000000 0.000000 3.426265 26.197947 0.735671 -78.680989 29.339310 -19.789919 -4.792632 -17.110789 0.005373 -1.608741 -1.753483 0.021951 -0.175827 -0.025248 -0.000000 0.000000 0.000000 0.000000 0.000000 0.000000 0.000000 5.492264 -16.209696 -1.602691 63.955050 -8.060616 20.742527 1.456291 49.029764 0.005913 0.633797 5.689716 0.030555 0.039106 -0.102764 -0.000000 0.000000 0.000000 0.000000 0.000000 0.000000 0.000000 
3.677790 16.605245 -2.541330 110.686176 -79.523773 -130.261243 -9.973053 -0.875831 5.291493 -1.986043 -0.182610 -1.251895 -2.951125 -0.107356 1.603974 8.048959 -21.078144 -9.249513 -0.072623 0.032990 -0.511301 0.000000 0.000000 0.000000 3.441709 26.007013 0.712842 -78.559983 29.002630 -19.999831 -4.777734 -16.728553 0.005470 -1.291163 -1.705470 0.016653 -0.177749 -0.023320 -0.000000 0.000000 0.000000 0.000000 0.000000 0.000000 0.000000 5.529893 -16.351967 -1.619042 64.140766 -8.352213 19.890652 1.473095 48.907904 0.005889 0.468274 5.664804 0.021969 0.041680 -0.104082 -0.000000 0.000000 0.000000 0.000000 0.000000 0.000000 0.000000 
3.675601 16.611341 -2.537885 110.764006 -79.538989 -130.529124 -9.778916 -0.892632 5.300361 -1.948358 -0.210271 -1.251951 -2.940677 -0.136915 1.587731 8.014410 -21.180629 -9.207804 -0.086593 0.030977 -0.498429 0.000000 0.000000 0.000000 3.464108 25.823826 0.683746 -78.420701 28.720815 -20.061852 -4.755218 -16.643686 0.005408 -1.004723 -1.623120 0.011857 -0.179204 -0.021755 -0.000000 0.000000 0.000000 0.000000 0.000000 0.000000 0.000000 5.564590 -16.464827 -1.627648 64.301033 -8.649347 19.141777 1.490771 48.787962 0.005868 0.335370 5.615006 0.015079 0.043973 -0.104983 -0.000000 0.000000 0.000000 0.000000 0.000000 0.000000 0.000000 
3.672582 16.618724 -2.534101 111.107827 -79.502741 -131.051136 -9.600094 -0.894762 5.298015 -1.914623 -0.222788 -1.255622 -2.930903 -0.151512 1.566899 7.985209 -21.272300 -9.165015 -0.099206 0.029055 -0.485148 0.000000 0.000000 0.000000 3.500331 25.641891 0.650541 -78.278479 28.507515 -19.993808 -4.726684 -16.858491 0.005223 -0.770935 -1.518251 0.008064 -0.180108 -0.020474 -0.000000 0.000000 0.000000 0.000000 0.000000 0.000000 0.000000 5.598182 -16.551780 -1.627917 64.427775 -8.940178 18.528778 1.508166 48.678461 0.005846 0.239661 5.547708 0.010088 0.045861 -0.105484 -0.000000 0.000000 0.000000 0.000000 0.000000 0.000000 0.000000 
3.668283 16.626889 -2.529757 111.720298 -79.425253 -131.828821 -9.426244 -0.885510 5.286857 -1.882264 -0.223793 -1.262475 -2.920962 -0.154842 1.541214 7.958962 -21.340635 -9.122557 -0.110579 0.027238 -0.471880 0.000000 0.000000 0.000000 3.559361 25.465739 0.616104 -78.141214 28.362667 -19.789855 -4.693150 -17.342524 0.004968 -0.599871 -1.405489 0.005473 -0.180436 -0.019404 -0.000000 0.000000 0.000000 0.000000 0.000000 0.000000 0.000000 5.626399 -16.601332 -1.621390 64.516288 -9.237643 18.047371 1.524723 48.601333 0.005832 0.199845 5.464116 0.007896 0.047040 -0.105579 -0.000000 0.000000 0.000000 0.000000 0.000000 0.000000 0.000000 
3.663098 16.635246 -2.525390 112.458636 -79.327341 -132.717093 -9.262893 -0.875648 5.274014 -1.851781 -0.223642 -1.270944 -2.910484 -0.157095 1.510635 7.940016 -21.395801 -9.083665 -0.120629 0.025601 -0.459558 0.000000 0.000000 0.000000 3.644616 25.280649 0.581604 -78.013356 28.287668 -19.469083 -4.655502 -18.073612 0.004673 -0.507043 -1.293552 0.003986 -0.180100 -0.018462 -0.000000 0.000000 0.000000 0.000000 0.000000 0.000000 0.000000 5.655721 -16.630344 -1.607977 64.561352 -9.522162 17.725668 1.539488 48.556855 0.005834 0.211039 5.375493 0.008300 0.047528 -0.105301 -0.000000 0.000000 0.000000 0.000000 0.000000 0.000000 0.000000 
3.656985 16.643391 -2.521049 113.254970 -79.230225 -133.644816 -9.103306 -0.872214 5.260403 -1.821398 -0.229601 -1.280692 -2.899133 -0.165583 1.475650 7.927787 -21.438932 -9.049112 -0.129646 0.024135 -0.448380 0.000000 0.000000 0.000000 3.760718 25.082365 0.548187 -77.891833 28.274495 -19.032027 -4.614184 -19.006793 0.004364 -0.494438 -1.189094 0.003600 -0.179087 -0.017603 -0.000000 0.000000 0.000000 0.000000 0.000000 0.000000 0.000000 5.687029 -16.644938 -1.589258 64.560527 -9.791363 17.563283 1.551866 48.552871 0.005852 0.276451 5.288103 0.011300 0.047238 -0.104689 -0.000000 0.000000 0.000000 0.000000 0.000000 0.000000 0.000000 
3.650569 16.651173 -2.517333 113.952397 -79.159247 -134.448689 -8.954654 -0.886209 5.251520 -1.792145 -0.252258 -1.290521 -2.887482 -0.190731 1.436423 7.926899 -21.482988 -9.020828 -0.138553 0.022805 -0.438864 0.000000 0.000000 0.000000 3.902125 24.848230 0.515877 -77.771604 28.314871 -18.517018 -4.570396 -20.101869 0.004077 -0.572772 -1.102606 0.004116 -0.177316 -0.016717 -0.000000 0.000000 0.000000 0.000000 0.000000 0.000000 0.000000 5.729952 -16.665679 -1.565156 64.515057 -10.026060 17.565928 1.561614 48.583945 0.005893 0.386109 5.212876 0.016297 0.046293 -0.103812 -0.000000 0.000000 0.000000 0.000000 0.000000 0.000000 0.000000 
